<?xml version="1.0" encoding="UTF-8"?>
<svg id="Layer_1" data-name="Layer 1" xmlns="http://www.w3.org/2000/svg" xmlns:xlink="http://www.w3.org/1999/xlink" viewBox="0 0 46 12">
  <defs>
    <style>
      .cls-1 {
        fill: url(#linear-gradient);
      }

      .cls-1, .cls-2 {
        stroke-width: 0px;
      }

      .cls-2 {
        fill: #fff;
      }
    </style>
    <linearGradient id="linear-gradient" x1="1.41" y1="499.25" x2="8.91" y2="490.06" gradientTransform="translate(0 502) scale(1 -1)" gradientUnits="userSpaceOnUse">
      <stop offset="0" stop-color="#6064ad"/>
      <stop offset="1" stop-color="#382c7d"/>
    </linearGradient>
  </defs>
  <g>
    <path class="cls-2" d="M10.8,7.99V3.97h.67v1.58c.11-.12.23-.21.37-.28.14-.07.3-.1.49-.1.15,0,.29.03.41.09.13.06.23.15.32.27.09.12.16.27.21.44.05.17.07.38.07.6,0,.21-.03.4-.08.58-.06.18-.14.33-.24.46s-.23.23-.38.3c-.15.07-.31.11-.49.11-.08,0-.16,0-.23-.03-.07-.02-.13-.04-.19-.07-.06-.03-.11-.07-.16-.11-.05-.04-.1-.09-.14-.15l-.03.19s-.03.08-.06.1c-.03.02-.06.03-.11.03h-.44ZM12.1,5.69c-.14,0-.26.03-.36.09-.1.06-.19.14-.27.25v1.24c.08.09.16.16.25.2.09.04.19.06.29.06s.19-.02.27-.06c.08-.04.15-.1.21-.17.06-.08.1-.18.13-.29.03-.12.05-.26.05-.42s-.01-.3-.04-.41c-.03-.11-.06-.2-.11-.27-.05-.07-.11-.12-.18-.15-.07-.03-.15-.05-.24-.05Z"/>
    <path class="cls-2" d="M16.05,7.99h-.3c-.06,0-.11,0-.15-.03-.04-.02-.06-.06-.08-.11l-.06-.2c-.07.06-.14.12-.21.17-.07.05-.14.09-.21.12-.07.03-.15.06-.23.07s-.17.02-.27.02c-.12,0-.23-.02-.32-.05-.1-.03-.18-.08-.26-.14-.07-.06-.13-.14-.17-.24-.04-.09-.06-.2-.06-.33,0-.1.03-.21.08-.31.05-.1.15-.19.27-.28.13-.08.3-.15.51-.2s.48-.08.79-.08v-.16c0-.19-.04-.33-.12-.42-.08-.09-.19-.13-.34-.13-.11,0-.2.01-.27.04-.07.03-.13.05-.19.09-.05.03-.1.06-.15.09-.05.03-.09.04-.15.04-.05,0-.08-.01-.12-.04s-.06-.05-.08-.09l-.12-.21c.32-.29.7-.44,1.15-.44.16,0,.31.03.43.08.13.05.23.13.32.22.09.09.16.21.2.34.05.13.07.28.07.43v1.75ZM14.75,7.57c.07,0,.13,0,.19-.02s.11-.03.16-.06.1-.06.15-.09c.05-.04.1-.08.14-.13v-.46c-.19,0-.36.01-.49.04-.13.02-.24.06-.31.09-.08.04-.14.08-.17.13-.03.05-.05.11-.05.17,0,.12.03.2.1.25.07.05.16.08.27.08Z"/>
    <path class="cls-2" d="M18.35,5.75s-.04.05-.06.06c-.02.01-.05.02-.08.02-.03,0-.07,0-.1-.03-.04-.02-.08-.04-.13-.06-.05-.02-.1-.04-.17-.06-.06-.02-.14-.03-.22-.03-.13,0-.24.03-.31.08-.08.06-.11.13-.11.22,0,.06.02.11.06.15s.09.08.15.11c.06.03.14.06.22.08.08.02.16.05.25.08.08.03.17.06.25.1.08.04.15.08.22.14.06.06.12.12.15.2.04.08.06.17.06.29,0,.13-.02.26-.07.37-.05.11-.12.21-.21.29-.09.08-.21.15-.35.19-.14.05-.3.07-.47.07-.1,0-.19,0-.28-.03-.09-.02-.18-.04-.26-.07-.08-.03-.16-.07-.23-.11-.07-.04-.13-.09-.19-.14l.15-.25s.04-.05.07-.07c.03-.02.06-.02.1-.02s.08.01.12.04c.04.02.08.05.13.08.05.03.11.05.17.08.07.02.15.04.25.04.08,0,.15,0,.2-.03.06-.02.1-.04.14-.07.04-.03.06-.07.08-.11.02-.04.03-.08.03-.13,0-.06-.02-.12-.06-.16-.04-.04-.09-.08-.15-.11-.06-.03-.14-.06-.22-.08s-.17-.05-.25-.08c-.09-.03-.17-.06-.25-.1-.08-.04-.15-.09-.22-.15-.06-.06-.12-.13-.15-.22-.04-.09-.06-.19-.06-.31,0-.11.02-.22.07-.32.05-.1.11-.19.2-.27.09-.08.2-.14.33-.18.13-.05.28-.07.45-.07.19,0,.36.03.52.09.16.06.29.15.39.25l-.15.24Z"/>
    <path class="cls-2" d="M21.01,5.8s-.04.05-.06.06c-.02.01-.05.02-.08.02s-.07-.01-.1-.03c-.03-.02-.07-.04-.12-.07-.05-.03-.1-.05-.16-.07-.06-.02-.14-.03-.23-.03-.12,0-.22.02-.31.06-.09.04-.16.1-.22.18-.06.08-.1.18-.13.29-.03.11-.04.24-.04.38s.02.28.05.39c.03.12.08.21.14.29.06.08.13.14.22.18s.18.06.29.06.19-.01.26-.04c.07-.03.12-.05.17-.09.04-.03.08-.06.12-.09.03-.03.07-.04.11-.04.05,0,.09.02.12.06l.19.24c-.07.09-.15.16-.24.22-.09.06-.18.11-.27.14-.09.04-.19.06-.29.07-.1.01-.2.02-.29.02-.17,0-.33-.03-.48-.1-.15-.06-.28-.16-.4-.28-.11-.12-.2-.27-.27-.45-.07-.18-.1-.38-.1-.61,0-.2.03-.39.09-.57.06-.17.14-.32.26-.45.11-.13.25-.23.42-.3.17-.07.36-.11.58-.11s.39.03.54.1c.16.07.3.16.42.29l-.18.24Z"/>
    <path class="cls-2" d="M22.83,5.17c.21,0,.4.03.56.1.17.07.31.16.43.28.12.12.21.27.28.45.06.18.1.37.1.59s-.03.42-.1.59c-.06.18-.16.33-.28.45s-.26.22-.43.29c-.17.07-.36.1-.56.1s-.4-.03-.56-.1c-.17-.07-.31-.16-.43-.29-.12-.12-.21-.27-.28-.45-.07-.18-.1-.37-.1-.59s.03-.42.1-.59c.07-.18.16-.33.28-.45.12-.12.26-.22.43-.28.17-.07.36-.1.56-.1ZM22.83,7.51c.23,0,.4-.08.51-.23.11-.15.17-.38.17-.68s-.06-.53-.17-.68c-.11-.16-.28-.24-.51-.24s-.41.08-.52.24c-.11.16-.17.39-.17.68s.06.52.17.68c.11.16.28.23.52.23Z"/>
    <path class="cls-2" d="M27.71,5.8s-.04.05-.06.06c-.02.01-.05.02-.08.02s-.07-.01-.1-.03c-.03-.02-.07-.04-.12-.07-.05-.03-.1-.05-.16-.07-.06-.02-.14-.03-.23-.03-.12,0-.22.02-.31.06-.09.04-.16.1-.22.18-.06.08-.1.18-.13.29-.03.11-.04.24-.04.38s.02.28.05.39c.03.12.08.21.14.29.06.08.13.14.22.18s.18.06.29.06.19-.01.26-.04c.07-.03.12-.05.17-.09.04-.03.08-.06.12-.09.03-.03.07-.04.11-.04.05,0,.09.02.12.06l.19.24c-.07.09-.15.16-.24.22-.09.06-.18.11-.27.14-.09.04-.19.06-.29.07-.1.01-.2.02-.29.02-.17,0-.33-.03-.48-.1-.15-.06-.28-.16-.4-.28-.11-.12-.2-.27-.27-.45-.07-.18-.1-.38-.1-.61,0-.2.03-.39.09-.57.06-.17.14-.32.26-.45.11-.13.25-.23.42-.3.17-.07.36-.11.58-.11s.39.03.54.1c.16.07.3.16.42.29l-.18.24Z"/>
    <path class="cls-2" d="M28.34,7.99v-2.77h.39c.07,0,.12.01.14.04.03.03.05.07.05.13l.04.34c.1-.17.22-.31.35-.41.13-.1.28-.15.45-.15.14,0,.25.03.34.09l-.09.5s-.02.06-.04.07c-.02.01-.04.02-.07.02-.03,0-.06,0-.11-.02-.05-.01-.11-.02-.19-.02-.14,0-.26.04-.36.11-.1.08-.18.19-.25.34v1.73h-.67Z"/>
    <path class="cls-2" d="M31.69,5.17c.17,0,.34.03.48.08.15.06.27.14.38.24.11.11.19.24.25.39.06.16.09.33.09.53,0,.05,0,.09,0,.13,0,.03-.01.06-.02.08-.01.02-.03.03-.05.04-.02,0-.05.01-.08.01h-1.71c.02.28.1.49.23.63.13.13.31.2.53.2.11,0,.2-.01.28-.04.08-.03.15-.05.21-.08.06-.03.11-.06.15-.08.04-.03.09-.04.13-.04.03,0,.05,0,.07.02.02.01.04.03.05.05l.19.24c-.07.09-.16.16-.25.22-.09.06-.19.11-.29.14-.1.04-.2.06-.31.07-.1.01-.2.02-.3.02-.19,0-.37-.03-.54-.1-.17-.06-.31-.16-.43-.28-.12-.13-.22-.28-.29-.46-.07-.18-.11-.4-.11-.64,0-.19.03-.37.09-.53.06-.17.15-.31.26-.44.11-.12.25-.22.42-.29.16-.07.35-.11.56-.11ZM31.71,5.65c-.19,0-.35.05-.46.16-.11.11-.18.27-.21.47h1.25c0-.09-.01-.17-.04-.24-.02-.08-.06-.14-.11-.2-.05-.06-.11-.1-.18-.14-.07-.03-.16-.05-.26-.05Z"/>
    <path class="cls-2" d="M35.61,7.99h-.3c-.06,0-.11,0-.15-.03-.04-.02-.06-.06-.08-.11l-.06-.2c-.07.06-.14.12-.21.17-.07.05-.14.09-.21.12-.07.03-.15.06-.23.07s-.17.02-.27.02c-.12,0-.23-.02-.32-.05-.1-.03-.18-.08-.26-.14-.07-.06-.13-.14-.17-.24-.04-.09-.06-.2-.06-.33,0-.1.03-.21.08-.31.05-.1.15-.19.27-.28.13-.08.3-.15.51-.2s.48-.08.79-.08v-.16c0-.19-.04-.33-.12-.42-.08-.09-.19-.13-.34-.13-.11,0-.2.01-.27.04-.07.03-.13.05-.19.09-.05.03-.1.06-.15.09-.05.03-.09.04-.15.04-.05,0-.08-.01-.12-.04s-.06-.05-.08-.09l-.12-.21c.32-.29.7-.44,1.15-.44.16,0,.31.03.43.08.13.05.23.13.32.22.09.09.16.21.2.34.05.13.07.28.07.43v1.75ZM34.31,7.57c.07,0,.13,0,.19-.02s.11-.03.16-.06.1-.06.15-.09c.05-.04.1-.08.14-.13v-.46c-.19,0-.36.01-.49.04-.13.02-.24.06-.31.09-.08.04-.14.08-.17.13-.03.05-.05.11-.05.17,0,.12.03.2.1.25.07.05.16.08.27.08Z"/>
    <path class="cls-2" d="M37.18,8.03c-.24,0-.42-.07-.55-.2-.13-.14-.19-.32-.19-.56v-1.55h-.28s-.07-.01-.09-.04c-.03-.02-.04-.06-.04-.11v-.26l.45-.07.14-.76s.02-.06.05-.08c.03-.02.06-.03.1-.03h.35v.87h.73v.48h-.73v1.5c0,.09.02.15.06.2.04.05.1.07.17.07.04,0,.08,0,.1-.01.03,0,.05-.02.07-.03.02-.01.04-.02.06-.03.02,0,.03-.01.05-.01.02,0,.04,0,.05.01.01,0,.03.02.04.04l.2.32c-.1.08-.21.14-.34.18-.13.04-.26.06-.39.06Z"/>
    <path class="cls-2" d="M39.17,4.41c0,.06-.01.11-.04.16-.02.05-.05.09-.09.13-.04.04-.08.07-.14.09-.05.02-.11.03-.17.03s-.11-.01-.16-.03c-.05-.02-.1-.05-.13-.09-.04-.04-.07-.08-.09-.13-.02-.05-.03-.1-.03-.16s.01-.12.03-.17c.02-.05.05-.1.09-.14.04-.04.08-.07.13-.09.05-.02.11-.03.16-.03s.12.01.17.03c.05.02.1.05.14.09.04.04.07.08.09.14.02.05.04.11.04.17ZM39.07,5.21v2.77h-.67v-2.77h.67Z"/>
    <path class="cls-2" d="M41.21,7.99h-.61l-1.1-2.77h.55s.09.01.12.04c.03.02.06.05.07.09l.54,1.48c.03.09.06.17.08.25.02.08.04.17.06.25.02-.08.03-.17.06-.25.02-.08.05-.17.08-.25l.55-1.48s.04-.07.07-.09c.03-.02.07-.04.12-.04h.53l-1.1,2.77Z"/>
    <path class="cls-2" d="M43.77,5.17c.17,0,.34.03.48.08.15.06.27.14.38.24.11.11.19.24.25.39.06.16.09.33.09.53,0,.05,0,.09,0,.13,0,.03-.01.06-.02.08-.01.02-.03.03-.05.04-.02,0-.05.01-.08.01h-1.71c.02.28.1.49.23.63.13.13.31.2.53.2.11,0,.2-.01.28-.04.08-.03.15-.05.21-.08.06-.03.11-.06.15-.08.04-.03.09-.04.13-.04.03,0,.05,0,.07.02.02.01.04.03.05.05l.19.24c-.07.09-.16.16-.25.22-.09.06-.19.11-.29.14-.1.04-.2.06-.31.07-.1.01-.2.02-.3.02-.19,0-.37-.03-.54-.1-.17-.06-.31-.16-.43-.28-.12-.13-.22-.28-.29-.46-.07-.18-.11-.4-.11-.64,0-.19.03-.37.09-.53.06-.17.15-.31.26-.44.11-.12.25-.22.42-.29.16-.07.35-.11.56-.11ZM43.78,5.65c-.19,0-.35.05-.46.16-.11.11-.18.27-.21.47h1.25c0-.09-.01-.17-.04-.24-.02-.08-.06-.14-.11-.2-.05-.06-.11-.1-.18-.14-.07-.03-.16-.05-.26-.05Z"/>
  </g>
  <path class="cls-1" d="M1.03,4.52V1.65c0-.38.26-.65.6-.65.35,0,.61.28.61.65v5.55c0,1.16.88,2.23,2.06,2.52.53.13,1.09.1,1.6-.09.51-.19.96-.53,1.27-.98.23-.32.17-.71-.12-.93-.3-.22-.69-.15-.93.17-.37.5-.87.71-1.48.58-.58-.12-.94-.49-1.09-1.06-.16-.63.16-1.3.75-1.59.29-.14.61-.19.93-.12.31.06.6.23.8.48.04.05.07.1.11.15.1.13.25.21.42.24.16.02.33-.02.47-.11.28-.2.37-.59.17-.87-.46-.66-1.09-1.05-1.88-1.17-.46-.07-.93-.01-1.36.16-.37.14-.66-.04-.69-.44-.02-.37.22-.69.63-.8,1.26-.32,2.44-.12,3.46.69,1.29,1.03,1.78,2.4,1.39,4-.39,1.6-1.46,2.59-3.09,2.91-2.17.42-4.22-1.04-4.58-3.23-.03-.19-.05-.39-.05-.58,0-.87,0-1.73,0-2.6Z"/>
</svg>